<svg xmlns="http://www.w3.org/2000/svg" width="800" height="600" viewBox="0 0 800 600">
  <rect width="800" height="600" fill="#0c0c0c"/>
  <defs>
    <radialGradient id="g6a" cx="20%" cy="80%" r="55%">
      <stop offset="0%" stop-color="#ff6a00" stop-opacity="0.32"/>
      <stop offset="100%" stop-color="#0c0c0c" stop-opacity="0"/>
    </radialGradient>
    <radialGradient id="g6b" cx="80%" cy="20%" r="40%">
      <stop offset="0%" stop-color="#ff6a00" stop-opacity="0.15"/>
      <stop offset="100%" stop-color="#0c0c0c" stop-opacity="0"/>
    </radialGradient>
  </defs>
  <rect width="800" height="600" fill="url(#g6a)"/>
  <rect width="800" height="600" fill="url(#g6b)"/>
  <!-- arc shapes -->
  <path d="M 0 600 A 500 500 0 0 1 500 100" fill="none" stroke="#ff6a00" stroke-width="1" opacity="0.2"/>
  <path d="M 0 600 A 380 380 0 0 1 380 220" fill="none" stroke="#ff6a00" stroke-width="0.5" opacity="0.12"/>
  <!-- text -->
  <text x="60" y="180" font-family="Arial" font-size="13" fill="#ff6a00" opacity="0.7" letter-spacing="6">SCULPTURAL</text>
  <rect x="60" y="195" width="160" height="1.5" fill="#ff6a00" opacity="0.5"/>
  <text x="60" y="300" font-family="Arial" font-size="88" font-weight="900" fill="#ffffff" opacity="0.9" letter-spacing="-3">CON</text>
  <text x="60" y="395" font-family="Arial" font-size="88" font-weight="900" fill="#ff6a00" opacity="0.9" letter-spacing="-3">CEPT</text>
  <text x="60" y="500" font-family="Arial" font-size="13" fill="#ffffff" opacity="0.25" letter-spacing="5">CREATIVE DIRECTION — 06</text>
  <!-- dots pattern -->
  <circle cx="680" cy="400" r="3" fill="#ff6a00" opacity="0.5"/>
  <circle cx="710" cy="400" r="3" fill="#ff6a00" opacity="0.3"/>
  <circle cx="740" cy="400" r="3" fill="#ff6a00" opacity="0.15"/>
  <circle cx="680" cy="430" r="3" fill="#ff6a00" opacity="0.3"/>
  <circle cx="710" cy="430" r="3" fill="#ff6a00" opacity="0.5"/>
  <circle cx="740" cy="430" r="3" fill="#ff6a00" opacity="0.3"/>
  <circle cx="680" cy="460" r="3" fill="#ff6a00" opacity="0.15"/>
  <circle cx="710" cy="460" r="3" fill="#ff6a00" opacity="0.3"/>
  <circle cx="740" cy="460" r="3" fill="#ff6a00" opacity="0.5"/>
</svg>
